<?xml version="1.0" standalone="no"?>
<!DOCTYPE svg PUBLIC "-//W3C//DTD SVG 20010904//EN"
 "http://www.w3.org/TR/2001/REC-SVG-20010904/DTD/svg10.dtd">
<svg version="1.0" xmlns="http://www.w3.org/2000/svg"
 width="1262.000000pt" height="652.000000pt" viewBox="0 0 1262.000000 652.000000"
 preserveAspectRatio="xMidYMid meet">

<g transform="translate(0.000000,652.000000) scale(0.100000,-0.100000)"
fill="#000000" stroke="none">
<path d="M5075 4274 c-11 -2 -44 -9 -72 -15 -29 -6 -53 -14 -53 -18 0 -4 -17
-27 -37 -51 -44 -51 -122 -90 -180 -90 -37 0 -46 -5 -85 -49 -56 -63 -112
-159 -139 -238 -20 -62 -20 -65 -3 -101 29 -60 30 -158 3 -221 l-22 -53 21
-67 c26 -79 75 -164 138 -238 40 -47 50 -53 83 -53 76 0 156 -43 204 -111 34
-47 91 -62 227 -62 148 1 184 13 247 83 57 62 103 86 183 94 38 4 51 11 83 48
53 60 112 162 137 237 20 62 21 65 3 100 -28 58 -30 167 -3 229 l22 51 -21 64
c-26 76 -79 168 -138 236 -38 44 -46 49 -96 54 -73 7 -127 36 -179 97 -27 32
-56 54 -78 60 -39 12 -214 22 -245 14z m186 -98 c69 -46 96 -135 64 -213 -20
-48 -41 -71 -87 -94 -145 -74 -306 77 -243 228 21 50 42 72 90 95 54 25 122
19 176 -16z m-408 -202 c67 -34 107 -95 107 -161 -1 -159 -189 -236 -301 -124
-88 88 -67 225 43 280 51 25 107 27 151 5z m764 -5 c109 -53 132 -193 44 -280
-87 -87 -232 -64 -282 45 -72 158 82 310 238 235z m-395 -308 c67 -60 29 -162
-61 -165 -90 -2 -131 104 -63 165 20 18 43 29 62 29 19 0 42 -11 62 -29z
m-375 -126 c50 -21 72 -42 94 -90 63 -137 -57 -283 -201 -246 -57 14 -114 72
-130 132 -37 135 107 258 237 204z m745 5 c46 -13 103 -76 118 -129 15 -56 -2
-113 -48 -162 -87 -91 -232 -68 -283 45 -24 53 -24 107 0 154 23 45 46 66 91
86 42 18 72 19 122 6z m-327 -244 c40 -31 74 -94 75 -139 0 -59 -46 -134 -102
-163 -35 -18 -121 -18 -156 0 -75 39 -116 130 -94 205 15 49 56 99 97 117 50
23 136 13 180 -20z"/>
<path d="M6755 3598 c-87 -332 -160 -609 -163 -615 -3 -10 16 -13 77 -13 80 0
81 0 87 28 3 15 40 155 81 312 42 157 83 313 91 348 9 34 18 62 21 62 3 0 80
-177 171 -394 90 -217 167 -393 171 -390 3 2 39 81 79 176 73 173 164 389 222
526 17 39 33 72 37 72 3 0 49 -165 101 -368 l96 -367 81 -3 82 -3 -21 73 c-11
40 -37 138 -58 218 -20 80 -54 206 -73 280 -54 201 -79 298 -127 480 -24 91
-46 168 -49 172 -3 3 -87 -189 -186 -428 -99 -238 -183 -434 -186 -434 -4 0
-14 17 -22 38 -187 453 -347 832 -352 832 -1 0 -73 -271 -160 -602z"/>
<path d="M3322 3767 c-101 -233 -187 -429 -191 -436 -5 -7 -42 69 -91 186 -46
109 -93 221 -106 248 -63 141 -84 189 -125 287 l-44 108 -83 0 c-75 0 -83 -2
-78 -17 22 -69 515 -1194 522 -1192 5 1 22 32 38 68 39 91 142 325 182 416 40
91 132 305 143 333 8 17 16 32 20 32 3 0 89 -192 191 -426 102 -234 188 -428
192 -430 3 -2 35 65 71 149 115 270 357 831 372 862 17 38 85 198 85 202 0 2
-37 3 -83 3 l-82 0 -180 -415 c-99 -228 -182 -411 -186 -407 -4 4 -30 61 -59
127 -29 66 -63 144 -76 173 -13 29 -24 54 -24 57 0 2 -13 32 -29 67 -16 35
-50 112 -75 171 -55 128 -114 257 -118 257 -2 0 -86 -191 -186 -423z"/>
<path d="M5960 3565 l0 -595 275 0 275 0 0 80 0 80 -195 0 -195 0 0 515 0 515
-80 0 -80 0 0 -595z"/>
<path d="M8140 3565 l0 -595 330 0 330 0 0 80 0 80 -250 0 -250 0 0 205 0 205
250 0 250 0 0 80 0 80 -250 0 -250 0 0 150 0 150 250 0 250 0 0 80 0 80 -330
0 -330 0 0 -595z"/>
<path d="M9020 3565 l0 -595 80 0 80 0 0 246 0 245 22 -3 c16 -2 65 -67 186
-245 l164 -243 95 0 95 0 -45 63 c-24 34 -79 114 -122 177 -43 63 -100 147
-127 187 -49 71 -54 93 -20 93 42 0 159 68 204 119 121 134 104 346 -35 450
-112 83 -183 101 -414 101 l-163 0 0 -595z m383 435 c44 -13 102 -61 124 -103
20 -39 20 -135 -1 -175 -36 -70 -124 -110 -258 -119 l-88 -6 0 213 0 213 93
-6 c50 -4 109 -11 130 -17z"/>
<path d="M5443 2685 c0 -7 7 -11 16 -10 9 2 20 4 25 4 14 1 1 11 -21 15 -11 3
-20 -1 -20 -9z"/>
<path d="M5606 2691 c-3 -5 3 -11 13 -14 14 -3 18 -1 14 9 -6 16 -19 18 -27 5z"/>
<path d="M5657 2686 c-5 -12 -1 -15 16 -12 24 3 27 19 4 24 -8 2 -17 -4 -20
-12z"/>
<path d="M5901 2596 c2 -81 0 -111 -9 -114 -17 -5 -64 7 -59 16 3 4 1 16 -4
27 -6 15 -8 10 -6 -19 2 -30 7 -41 25 -47 15 -6 21 -5 17 2 -4 6 3 7 21 3 19
-5 25 -4 20 5 -4 6 -3 11 2 11 8 0 4 211 -5 220 -3 3 -3 -44 -2 -104z"/>
<path d="M6063 2596 l0 -101 6 91 c6 84 7 91 26 87 11 -2 26 -5 33 -5 6 -1 13
-7 13 -15 1 -7 2 -18 3 -25 0 -6 7 -12 14 -14 7 -1 8 0 2 3 -5 2 -7 9 -4 14 9
15 -26 61 -41 55 -7 -2 -16 -2 -19 2 -4 3 -13 7 -20 8 -11 1 -13 -20 -13 -100z"/>
<path d="M6301 2575 c0 -69 4 -125 9 -125 4 0 9 56 9 125 1 83 -2 125 -9 125
-7 0 -10 -43 -9 -125z"/>
<path d="M6506 2687 c3 -10 9 -15 12 -12 3 3 0 11 -7 18 -10 9 -11 8 -5 -6z"/>
<path d="M6733 2693 c-21 -7 -15 -23 7 -20 11 2 22 6 25 9 8 8 -17 16 -32 11z"/>
<path d="M5420 2680 c0 -5 0 -13 1 -16 0 -4 -5 -11 -13 -16 -10 -7 -10 -11 -1
-14 7 -3 9 -12 6 -20 -3 -8 -1 -14 3 -14 5 0 9 20 10 45 0 25 -1 45 -3 45 -2
0 -3 -4 -3 -10z"/>
<path d="M6472 2669 c-12 -19 -11 -19 8 -9 11 6 18 15 15 21 -8 12 -8 12 -23
-12z"/>
<path d="M6530 2680 c0 -6 5 -10 11 -10 5 0 7 -4 4 -10 -3 -5 -3 -10 2 -10 10
0 11 -131 1 -146 -5 -7 -2 -14 6 -17 12 -5 14 10 11 86 -1 51 -3 95 -4 98 -2
11 -31 19 -31 9z"/>
<path d="M5823 2640 c0 -25 2 -35 4 -22 2 12 2 32 0 45 -2 12 -4 2 -4 -23z"/>
<path d="M6699 2668 c-1 -7 0 -17 1 -23 1 -5 3 -17 3 -25 0 -17 16 -40 28 -40
5 0 6 7 3 15 -4 8 -10 13 -14 10 -8 -5 -10 2 -11 53 0 23 -8 31 -10 10z"/>
<path d="M5640 2653 c0 -5 5 -15 10 -23 7 -12 9 -10 7 8 -1 19 -17 33 -17 15z"/>
<path d="M6461 2630 c-9 -42 -9 -102 0 -93 6 6 8 32 6 59 -2 27 -5 42 -6 34z"/>
<path d="M5643 2541 c0 -41 3 -68 7 -60 4 8 4 41 0 74 l-7 60 0 -74z"/>
<path d="M459 2586 c16 -19 25 -64 10 -49 -6 6 -19 9 -28 6 -13 -4 -13 -2 2 7
9 6 17 16 17 22 0 6 -3 8 -7 5 -3 -4 -12 -2 -19 4 -9 8 -15 5 -23 -9 -8 -15
-6 -23 8 -36 16 -15 222 -16 2455 -16 1639 0 2435 3 2431 10 -4 6 -11 8 -16 5
-5 -4 -9 -1 -9 6 0 6 -8 9 -19 6 -13 -3 -27 3 -38 16 -16 19 -16 20 -1 8 15
-11 22 -11 42 2 23 15 24 15 19 -3 -4 -14 0 -20 11 -20 17 0 20 9 10 34 -5 14
-242 16 -2431 16 -2079 0 -2424 -2 -2414 -14z"/>
<path d="M6872 2563 l3 -38 2583 -3 c1906 -1 2582 1 2582 9 0 8 4 8 14 -1 26
-21 60 -8 63 22 1 23 -1 25 -12 15 -8 -7 -10 -16 -4 -23 5 -7 3 -11 -6 -11 -8
0 -12 4 -9 8 2 4 -4 12 -13 18 -10 6 -12 11 -5 11 6 0 12 7 12 15 0 13 -314
15 -2606 15 l-2605 0 3 -37z m5161 0 c-7 -2 -19 -2 -25 0 -7 3 -2 5 12 5 14 0
19 -2 13 -5z"/>
<path d="M6152 2568 c-1 -45 -7 -65 -26 -84 -11 -10 -21 -18 -23 -16 -2 1 -3
-1 -2 -5 0 -10 30 -4 46 8 6 6 10 21 8 35 -1 13 2 27 6 30 12 7 12 54 0 54 -5
0 -9 -10 -9 -22z"/>
<path d="M12086 2573 c-6 -14 -5 -15 5 -6 7 7 10 15 7 18 -3 3 -9 -2 -12 -12z"/>
<path d="M5445 2570 c-3 -6 1 -7 9 -4 18 7 21 14 7 14 -6 0 -13 -4 -16 -10z"/>
<path d="M6747 2551 c12 -10 19 -21 16 -25 -4 -3 -1 -6 5 -6 7 0 12 4 12 8 0
12 -34 42 -46 42 -5 -1 1 -9 13 -19z"/>
<path d="M5468 2554 c-7 -6 7 -63 18 -73 3 -3 2 7 -2 24 -4 16 -7 35 -7 42 0
15 -1 15 -9 7z"/>
<path d="M6463 2500 c1 -10 3 -17 5 -15 3 2 13 -6 23 -18 13 -16 18 -18 19 -7
0 10 3 11 8 4 5 -9 11 -8 20 2 11 12 9 14 -16 9 -28 -5 -49 13 -44 38 1 4 -2
7 -7 7 -6 0 -9 -9 -8 -20z"/>
<path d="M6757 2496 c-4 -10 -1 -13 9 -9 7 3 14 9 14 14 0 14 -17 10 -23 -5z"/>
<path d="M5456 2475 c-4 -11 -10 -15 -14 -10 -9 13 -32 17 -32 6 0 -12 35 -20
50 -11 7 4 10 14 8 21 -3 9 -7 7 -12 -6z"/>
<path d="M6063 2472 c1 -14 5 -18 11 -12 7 7 6 14 -1 21 -9 9 -12 7 -10 -9z"/>
<path d="M6705 2470 c-3 -6 1 -7 9 -4 9 3 16 1 16 -6 0 -6 5 -8 11 -4 8 4 7 9
-2 15 -18 11 -26 11 -34 -1z"/>
</g>
</svg>
