<svg xmlns="http://www.w3.org/2000/svg" version="1.1" xmlns:xlink="http://www.w3.org/1999/xlink" xmlns:svgjs="http://svgjs.com/svgjs" width="1440" height="560" preserveAspectRatio="none" viewBox="0 0 1440 560">
    <g mask="url(&quot;#SvgjsMask1091&quot;)" fill="none">
        <rect width="1440" height="560" x="0" y="0" fill="rgba(0, 0, 0, 1)"></rect>
        <path d="M535.56 0C555.63 5.66 544.8 39.49 560 39.49C579.67 39.49 578.12 7.66 605.29 0C648.12 -12.08 652.64 0 700 0C770 0 770 0 840 0C889.59 0 892.63 -9.58 939.17 0C962.63 4.83 961.08 12.55 980 28.82C1042.47 82.55 1049.2 78.94 1101.94 140C1119.2 159.99 1098.02 182.8 1120 190.91C1177.05 211.96 1206.07 216.16 1260 198.33C1283.07 190.7 1274 167.6 1274 140C1274 129.69 1267.08 131.19 1260 122.5C1210.08 61.19 1160 37.52 1160 0C1160 -23.73 1210 0 1260 0C1330 0 1330 0 1400 0C1470 0 1505 -35 1540 0C1575 35 1540 70 1540 140C1540 202.5 1542.62 203 1540 265C1539.66 273 1534.08 272.61 1534.08 280C1534.08 286.28 1539.71 285.57 1540 292.35C1542.67 355.57 1540 356.17 1540 420C1540 471.66 1547.58 473.71 1540 523.33C1536.89 543.71 1537.06 555.17 1518.61 560C1467.06 573.5 1459.3 560 1400 560C1330 560 1330 560 1260 560C1190 560 1190 560 1120 560C1050 560 1050 560 980 560C910 560 910 560 840 560C792.7 560 791.32 566.56 745.41 560C721.32 556.56 724.21 543.94 700 540C631.51 528.84 616.87 559.8 560 529.8C503.12 499.8 499.41 482.21 472.5 420C445.38 357.31 472.02 344.81 451.93 280C445.77 260.14 438.33 250.65 420 250.65C389.86 250.65 363.56 251.52 355 280C338.11 336.19 357.35 350.79 369.09 420C381.1 490.79 426.56 522.18 402.5 560C382.02 592.18 341.25 560 280 560C213.18 560 212.31 562.44 146.36 560C142.31 559.85 144.05 555.14 140 554.81C70.87 549.21 36.57 583.35 0 548.14C-33.43 515.95 0 484.07 0 420C0 368.92 -17.35 359.49 0 317.84C11.81 289.49 58.33 297.67 58.33 280C58.33 263.2 11.02 275.33 0 248.89C-18.15 205.33 0 194.44 0 140C0 70 -35 35 0 0C35 -35 70 0 140 0C210 0 210 0 280 0C350 0 350 0 420 0C477.78 0 485.63 -14.08 535.56 0" stroke="rgba(255, 250, 250, 0.31)" stroke-width="2"></path>
        <path d="M700 97.58C681.44 97.58 663.16 114.74 663.16 140C663.16 199.58 681.35 267.27 700 267.27C718.69 267.27 737.84 199.41 737.84 140C737.84 114.57 718.78 97.58 700 97.58" stroke="rgba(255, 250, 250, 0.31)" stroke-width="2"></path>
        <path d="M840 402.05C833.71 402.05 830.91 410.8 830.91 420C830.91 431.44 833.38 443.33 840 443.33C848.22 443.33 860.59 430.99 860.59 420C860.59 410.35 848.55 402.05 840 402.05" stroke="rgba(255, 250, 250, 0.31)" stroke-width="2"></path>
        <path d="M0 48.7C16.44 15.14 30.72 13.17 68.57 0C100.72 -11.18 104.28 0 140 0C210 0 210 0 280 0C350 0 350 0 420 0C450 0 460.19 -18.29 480 0C530.19 46.33 518.67 65.68 560 129.23C564.2 135.68 568.15 132.92 571.05 140C599.08 208.31 581.9 221.95 621.86 280C646.37 315.61 659.63 327.32 700 327.32C749.61 327.32 772.73 321.14 801.82 280C838.95 227.48 816.55 209.86 832.43 140C835.64 125.86 827.44 112.7 840 112C901.22 108.58 911.41 118.87 980 131.76C985.93 132.87 989.03 134.68 989.03 140C989.03 152.8 986.91 155.08 980 168C949.46 225.08 957.27 235.52 914.12 280C887.27 307.68 865.81 284.23 840 312.31C801.47 354.23 821.16 372.55 785.45 420C751.16 465.56 750.11 489.18 700 498.33C637.39 509.77 623.37 489.9 560 461.18C536.96 450.74 533.54 444.67 527.19 420C510.21 354.08 541.52 339.39 513.33 280C487.93 226.48 475.08 209.21 420 194.19C358.42 177.39 336.99 233.02 280 216.36C244.28 205.92 264.7 171.48 234.59 140C194.7 98.3 181.76 70 140 70C109.47 70 120.1 109.9 90 140C50.1 179.9 27.88 210 0 210C-17.12 210 0 175 0 140C0 94.35 -17.85 85.14 0 48.7" stroke="rgba(255, 250, 250, 0.31)" stroke-width="2"></path>
        <path d="M1260 35C1242.49 35 1231.43 10.72 1231.43 0C1231.43 -6.78 1245.72 0 1260 0C1290.43 0 1320.87 -8.13 1320.87 0C1320.87 9.37 1287.21 35 1260 35" stroke="rgba(255, 250, 250, 0.31)" stroke-width="2"></path>
        <path d="M1344 140C1364.23 93.92 1373.34 98.38 1400 55.15C1416.51 28.38 1404.81 10.05 1430.33 0C1474.81 -17.52 1515.91 -30.75 1540 0C1570.75 39.25 1540 70 1540 140C1540 140 1540 140 1540 140C1512.39 210 1484.79 210.98 1484.79 280C1484.79 338.63 1516.87 336.63 1540 395.29C1544.47 406.63 1540 407.64 1540 420C1540 430 1544.4 431.19 1540 440C1509.4 501.19 1516.55 520.1 1470 560C1446.55 580.1 1435 560 1400 560C1346.39 560 1342.47 570.32 1292.77 560C1272.47 555.79 1276.02 530.94 1260 530.94C1244.82 530.94 1249.51 556.03 1230.38 560C1179.51 570.56 1175.19 560 1120 560C1050 560 1050 560 980 560C910 560 843.53 590 840 560C835.29 520 908.2 493.78 963.53 420C978.2 400.44 959.91 383.22 980 373.33C1038.15 344.72 1049.59 355.91 1120 343C1189.59 330.24 1195.98 344.24 1260 322C1286.64 312.74 1289.26 306.12 1301.31 280C1331.26 215.12 1314.88 206.34 1344 140" stroke="rgba(255, 250, 250, 0.31)" stroke-width="2"></path>
        <path d="M131.25 280C138.24 275 133.27 265 140 265C153.8 265 156.24 272.33 172.31 280C226.24 305.75 240 292.89 280 331.85C311.87 362.89 316.06 375.2 316.06 420C316.06 475.94 315.39 532.29 280 533.33C227.36 534.88 214.9 437.1 140 425.19C74.9 414.84 48.36 490.6 0 488.81C-21.64 488.01 0 454.4 0 420C0 392.57 -17.04 383.31 0 365.14C48.59 313.31 68.24 325.07 131.25 280" stroke="rgba(255, 250, 250, 0.31)" stroke-width="2"></path>
        <path d="M0 99.42C11.68 99.42 40 121.03 40 140C40 156.87 12.39 171.11 0 171.11C-7.61 171.11 0 155.56 0 140C0 119.71 -8.32 99.42 0 99.42" stroke="rgba(255, 250, 250, 0.31)" stroke-width="2"></path>
        <path d="M420 93.33C415.18 93.33 405.26 40.37 405.26 0C405.26 -6.3 412.63 0 420 0C422.22 0 424.44 -2.12 424.44 0C424.44 44.55 424.77 93.33 420 93.33" stroke="rgba(255, 250, 250, 0.31)" stroke-width="2"></path>
        <path d="M1540 65.53C1525.64 65.53 1488.67 20.27 1488.67 0C1488.67 -12.5 1528.73 -14.39 1540 0C1554.39 18.37 1551.3 65.53 1540 65.53" stroke="rgba(255, 250, 250, 0.31)" stroke-width="2"></path>
        <path d="M1358.69 280C1358.69 225.65 1380.64 170.43 1400 170.43C1419.04 170.43 1435.49 225.55 1435.49 280C1435.49 328.8 1419 376.92 1400 376.92C1380.6 376.92 1358.69 328.9 1358.69 280" stroke="rgba(255, 250, 250, 0.31)" stroke-width="2"></path>
        <path d="M0 412.43C7.39 412.43 20 415.81 20 420C20 424.34 7 429.49 0 429.49C-3 429.49 0 424.75 0 420C0 416.22 -2.61 412.43 0 412.43" stroke="rgba(255, 250, 250, 0.31)" stroke-width="2"></path>
        <path d="M603.75 420C603.75 399.74 656.3 376.62 700 376.62C724.42 376.62 740 399.15 740 420C740 439.17 723.51 456.67 700 456.67C655.38 456.67 603.75 439.77 603.75 420" stroke="rgba(255, 250, 250, 0.31)" stroke-width="2"></path>
        <path d="M1141 420C1141 399 1201.22 380.33 1260 380.33C1308.32 380.33 1355.2 399.07 1355.2 420C1355.2 441.36 1308.5 464.91 1260 464.91C1201.4 464.91 1141 441.29 1141 420" stroke="rgba(255, 250, 250, 0.31)" stroke-width="2"></path>
        <path d="M1033.85 560C1033.85 522.93 1085.25 442.11 1120 442.11C1149.87 442.11 1163.08 516.12 1163.08 560C1163.08 575.06 1141.54 560 1120 560C1076.93 560 1033.85 581.87 1033.85 560" stroke="rgba(255, 250, 250, 0.31)" stroke-width="2"></path>
        <path d="M1367.23 560C1367.23 530.52 1386.18 478.95 1400 478.95C1413.26 478.95 1421.39 527.71 1421.39 560C1421.39 568.24 1410.7 560 1400 560C1383.61 560 1367.23 571.05 1367.23 560" stroke="rgba(255, 250, 250, 0.31)" stroke-width="2"></path>
    </g>
    <defs>
        <mask id="SvgjsMask1091">
            <rect width="1440" height="560" fill="#ffffff"></rect>
        </mask>
    </defs>
</svg>