<?xml version="1.0" standalone="no"?>
<!DOCTYPE svg PUBLIC "-//W3C//DTD SVG 20010904//EN"
 "http://www.w3.org/TR/2001/REC-SVG-20010904/DTD/svg10.dtd">
<svg version="1.0" id="logosvg" xmlns="http://www.w3.org/2000/svg"
 width="191.000000pt" height="168.000000pt" viewBox="0 0 191.000000 168.000000"
 preserveAspectRatio="xMidYMid meet">

<g transform="translate(0.000000,168.000000) scale(0.100000,-0.100000)"
fill="#0000000" stroke="none">
<path d="M825 1494 c-11 -2 -44 -9 -72 -15 -29 -6 -53 -14 -53 -18 0 -4 -17
-27 -37 -51 -44 -51 -122 -90 -180 -90 -37 0 -46 -5 -85 -49 -56 -63 -112
-159 -139 -238 -20 -62 -20 -65 -3 -101 29 -60 30 -158 3 -221 l-22 -53 21
-67 c26 -79 75 -164 138 -238 40 -47 50 -53 83 -53 76 0 156 -43 204 -111 34
-47 91 -62 227 -62 148 1 184 13 247 83 57 62 103 86 183 94 38 4 51 12 83 48
54 61 112 163 137 237 20 62 21 65 3 100 -28 58 -30 167 -3 229 l22 51 -21 64
c-26 76 -79 168 -138 236 -38 44 -46 49 -96 54 -73 7 -127 36 -179 97 -27 32
-56 54 -78 60 -39 12 -214 22 -245 14z m163 -85 c51 -25 91 -81 99 -137 19
-143 -137 -250 -262 -179 -127 72 -124 249 5 315 55 28 101 28 158 1z m-385
-215 c45 -23 66 -44 88 -86 25 -48 24 -101 -2 -155 -53 -109 -193 -132 -280
-44 -88 88 -67 225 43 280 51 25 107 27 151 5z m764 -5 c109 -53 132 -193 44
-280 -87 -87 -232 -64 -282 45 -72 158 82 310 238 235z m-395 -308 c67 -60 29
-162 -61 -165 -90 -2 -131 104 -63 165 20 18 43 29 62 29 19 0 42 -11 62 -29z
m-375 -126 c50 -21 72 -42 94 -90 63 -137 -57 -283 -201 -246 -56 14 -114 72
-130 129 -36 138 106 262 237 207z m745 5 c46 -13 103 -76 118 -129 15 -56 -2
-113 -48 -162 -87 -91 -232 -68 -283 45 -24 53 -24 107 0 154 23 45 46 66 91
86 42 18 72 19 122 6z m-327 -244 c40 -31 74 -94 75 -139 0 -59 -46 -134 -102
-163 -35 -18 -121 -18 -156 0 -75 39 -116 130 -94 205 15 49 56 99 97 117 50
23 136 13 180 -20z"/>
</g>
</svg>
